<?xml version="1.0" encoding="UTF-8"?>
<svg id="Calque_2" xmlns="http://www.w3.org/2000/svg" viewBox="0 0 754.79 211"><defs><style>.cls-1{fill:#081425;}</style></defs><g id="Calque_1-2"><g><path class="cls-1" d="M296.76,28.47c-41.44,0-75.03,33.59-75.03,75.03s33.59,75.03,75.03,75.03,75.03-33.59,75.03-75.03-33.59-75.03-75.03-75.03Zm0,119.96c-23.93,0-43.33-20.12-43.33-44.93s19.4-44.93,43.33-44.93,43.33,20.12,43.33,44.93-19.4,44.93-43.33,44.93Z"/><path class="cls-1" d="M731.65,32.39c-14.54,0-26.47,6.69-34.61,17.74v-17.74h-32.28V174.6h32.28V95.5c0-21.81,12.51-34.9,33.15-34.9h24.6v-28.21h-23.15Z"/><path class="cls-1" d="M579.26,28.61c-39.84,0-74.45,32.86-74.45,76.48,0,40.71,30.83,73.29,73.29,73.29,35.77,0,61.95-20.94,68.93-48.86h-31.99c-3.78,12.8-18.03,21.23-34.9,21.23-22.39,0-40.42-14.83-43.62-38.68h111.09c.87-6.4,1.16-11.05,1.16-14.54,0-38.68-29.96-68.92-69.51-68.92Zm-40.42,57c6.4-18.03,22.1-29.38,40.42-29.38,20.07,0,35.19,13.09,36.35,29.38h-76.78Z"/><polygon class="cls-1" points="478.42 32.39 439.01 133.6 399.6 32.39 363.25 32.39 421.27 174.6 455 174.6 513.32 32.39 478.42 32.39"/><path class="cls-1" d="M103.5,0C46.34,0,0,46.34,0,103.5s46.34,103.5,103.5,103.5c7.94,0,15.66-.9,23.08-2.59l-12.74-31.22c-3.37,.53-6.83,.81-10.34,.81-37.55,0-67.99-31.56-67.99-70.5S65.95,33,103.5,33s67.99,31.56,67.99,70.5c0,17.07-5.86,32.7-15.59,44.9l-21.4-27.4h-42l70.5,90h41.8l-27.39-35.07c18.3-18.67,29.59-44.23,29.59-72.43C207,46.34,160.66,0,103.5,0Z"/></g></g></svg>