<?xml version="1.0" encoding="UTF-8"?>
<svg width="213px" height="59px" viewBox="0 0 213 59" version="1.1" xmlns="http://www.w3.org/2000/svg" xmlns:xlink="http://www.w3.org/1999/xlink">
    <title>logo-qover_h-gradient</title>
    <defs>
        <linearGradient x1="0.0114898676%" y1="50.1646756%" x2="207.532141%" y2="47.6931664%" id="linearGradient-1">
            <stop stop-color="#317BDA" offset="0%"></stop>
            <stop stop-color="#42C8CD" offset="100%"></stop>
        </linearGradient>
        <path d="M2.34075,18.009 C-0.78025,25.384 -0.78025,33.713 2.34075,41.089 L2.34075,41.089 L10.64575,36.283 C9.85875,34.111 9.45475,31.819 9.45275,29.507 L9.45275,29.507 C9.39175,18.415 18.31075,9.373 29.37475,9.311 L29.37475,9.311 C40.43775,9.25 49.45675,18.194 49.51675,29.286 L49.51675,29.286 C49.53075,31.672 49.11875,34.042 48.30275,36.283 L48.30275,36.283 L56.58575,41.089 C62.94175,26.07 55.95275,8.728 40.97275,2.355 L40.97275,2.355 C37.21675,0.757 33.31475,0 29.47575,0 L29.47575,0 C18.00775,0.001 7.10275,6.757 2.34075,18.009 L2.34075,18.009 Z M176.04575,17.183 C174.55675,17.809 173.24375,18.689 172.11075,19.823 L172.11075,19.823 C170.97575,20.957 170.06975,22.337 169.39275,23.962 L169.39275,23.962 C168.71575,25.587 168.37775,27.399 168.37775,29.396 L168.37775,29.396 C168.37775,31.496 168.72375,33.375 169.41875,35.033 L169.41875,35.033 C170.11275,36.693 171.05175,38.098 172.23775,39.248 L172.23775,39.248 C173.42175,40.4 174.79375,41.271 176.34975,41.863 L176.34975,41.863 C177.90775,42.456 179.55075,42.753 181.27675,42.753 L181.27675,42.753 C182.80075,42.753 184.19775,42.54 185.46675,42.117 L185.46675,42.117 C186.73575,41.694 187.84375,41.127 188.79275,40.416 L188.79275,40.416 C189.73975,39.705 190.54475,38.867 191.20475,37.903 L191.20475,37.903 C191.66475,37.231 192.03175,36.529 192.31875,35.8 L192.31875,35.8 L186.63575,34.002 C186.24175,34.742 185.71775,35.375 185.06075,35.897 L185.06075,35.897 C184.16175,36.608 182.91875,36.963 181.32775,36.963 L181.32775,36.963 C180.48075,36.963 179.68475,36.82 178.94075,36.531 L178.94075,36.531 C178.19475,36.244 177.54375,35.846 176.98575,35.339 L176.98575,35.339 C176.42675,34.83 175.96975,34.229 175.61375,33.535 L175.61375,33.535 C175.25875,32.842 175.06375,32.088 175.02975,31.275 L175.02975,31.275 L192.90575,31.275 C192.90575,31.208 192.92275,30.963 192.95775,30.539 L192.95775,30.539 C192.99075,30.116 193.00875,29.668 193.00875,29.193 L193.00875,29.193 C193.00875,25.164 191.92375,22 189.75775,19.696 L189.75775,19.696 C187.59075,17.394 184.55975,16.243 180.66775,16.243 L180.66775,16.243 C179.07575,16.243 177.53575,16.556 176.04575,17.183 L176.04575,17.183 Z M175.61375,24.927 C175.86875,24.352 176.23175,23.828 176.70675,23.352 L176.70675,23.352 C177.17975,22.879 177.75475,22.489 178.43275,22.185 L178.43275,22.185 C179.10975,21.88 179.88775,21.728 180.76975,21.728 L180.76975,21.728 C181.71575,21.728 182.53775,21.873 183.23275,22.16 L183.23275,22.16 C183.92575,22.448 184.50175,22.819 184.95875,23.277 L184.95875,23.277 C185.41475,23.734 185.75375,24.259 185.97475,24.851 L185.97475,24.851 C186.19375,25.444 186.32075,26.044 186.35575,26.653 L186.35575,26.653 L175.18275,26.653 C175.21575,26.078 175.36075,25.503 175.61375,24.927 L175.61375,24.927 Z M121.47875,17.233 C119.87075,17.894 118.48375,18.807 117.31475,19.975 L117.31475,19.975 C116.14675,21.144 115.23275,22.541 114.57275,24.166 L114.57275,24.166 C113.91275,25.79 113.58275,27.568 113.58275,29.498 L113.58275,29.498 C113.58275,31.428 113.91275,33.197 114.57275,34.805 L114.57275,34.805 C115.23275,36.413 116.14675,37.81 117.31475,38.994 L117.31475,38.994 C118.48375,40.18 119.87075,41.102 121.47875,41.762 L121.47875,41.762 C123.08675,42.422 124.82275,42.753 126.68475,42.753 L126.68475,42.753 C128.54575,42.753 130.28175,42.422 131.88975,41.762 L131.88975,41.762 C133.49775,41.102 134.88675,40.18 136.05475,38.994 L136.05475,38.994 C137.22175,37.81 138.13575,36.413 138.79675,34.805 L138.79675,34.805 C139.45675,33.197 139.78675,31.428 139.78675,29.498 L139.78675,29.498 C139.78675,27.568 139.45675,25.79 138.79675,24.166 L138.79675,24.166 C138.13575,22.541 137.22175,21.144 136.05475,19.975 L136.05475,19.975 C134.88675,18.807 133.49775,17.894 131.88975,17.233 L131.88975,17.233 C130.28175,16.574 128.54575,16.243 126.68475,16.243 L126.68475,16.243 C124.82275,16.243 123.08675,16.574 121.47875,17.233 L121.47875,17.233 Z M124.29775,36.15 C123.51875,35.846 122.84175,35.398 122.26675,34.805 L122.26675,34.805 C121.69075,34.213 121.22575,33.476 120.86975,32.595 L120.86975,32.595 C120.51475,31.716 120.33575,30.683 120.33575,29.498 L120.33575,29.498 C120.33575,28.313 120.51475,27.281 120.86975,26.4 L120.86975,26.4 C121.22575,25.52 121.69075,24.783 122.26675,24.191 L122.26675,24.191 C122.84175,23.599 123.51875,23.15 124.29775,22.845 L124.29775,22.845 C125.07675,22.541 125.87175,22.388 126.68475,22.388 L126.68475,22.388 C127.49775,22.388 128.29175,22.541 129.07175,22.845 L129.07175,22.845 C129.85075,23.15 130.52675,23.599 131.10275,24.191 L131.10275,24.191 C131.67875,24.783 132.14375,25.52 132.49975,26.4 L132.49975,26.4 C132.85475,27.281 133.03275,28.313 133.03275,29.498 L133.03275,29.498 C133.03275,30.683 132.85475,31.716 132.49975,32.595 L132.49975,32.595 C132.14375,33.476 131.67875,34.213 131.10275,34.805 L131.10275,34.805 C130.52675,35.398 129.85075,35.846 129.07175,36.15 L129.07175,36.15 C128.29175,36.455 127.49775,36.608 126.68475,36.608 L126.68475,36.608 C125.87175,36.608 125.07675,36.455 124.29775,36.15 L124.29775,36.15 Z M90.24775,17.41 C88.77575,18.089 87.52275,19.011 86.49075,20.179 L86.49075,20.179 C85.45775,21.347 84.65375,22.727 84.07775,24.318 L84.07775,24.318 C83.50275,25.909 83.21475,27.619 83.21475,29.447 L83.21475,29.447 C83.21475,31.343 83.51975,33.087 84.12875,34.678 L84.12875,34.678 C84.73875,36.269 85.57675,37.657 86.64275,38.842 L86.64275,38.842 C87.70975,40.028 88.98775,40.95 90.47675,41.61 L90.47675,41.61 C91.96675,42.27 93.60775,42.601 95.40375,42.601 L95.40375,42.601 C97.06175,42.601 98.49175,42.321 99.69475,41.762 L99.69475,41.762 C100.89475,41.204 101.78375,40.451 102.36075,39.502 L102.36075,39.502 L102.36075,51.639 L108.96275,51.639 L108.96275,17.005 L102.51375,17.005 L102.51375,19.9 C102.34375,19.561 102.07375,19.181 101.70075,18.757 L101.70075,18.757 C101.32675,18.334 100.83775,17.953 100.22875,17.614 L100.22875,17.614 C99.61675,17.276 98.89875,16.988 98.06975,16.751 L98.06975,16.751 C97.23875,16.514 96.28275,16.395 95.19975,16.395 L95.19975,16.395 C93.37175,16.395 91.72175,16.735 90.24775,17.41 L90.24775,17.41 Z M91.82275,34.678 C90.62075,33.426 90.01975,31.682 90.01975,29.447 L90.01975,29.447 C90.01975,27.212 90.62075,25.486 91.82275,24.267 L91.82275,24.267 C93.02475,23.048 94.48875,22.439 96.21475,22.439 L96.21475,22.439 C97.94275,22.439 99.40775,23.048 100.60875,24.267 L100.60875,24.267 C101.80975,25.486 102.41075,27.212 102.41075,29.447 L102.41075,29.447 C102.41075,31.682 101.80975,33.426 100.60875,34.678 L100.60875,34.678 C99.40775,35.931 97.94275,36.557 96.21475,36.557 L96.21475,36.557 C94.48875,36.557 93.02475,35.931 91.82275,34.678 L91.82275,34.678 Z M209.21975,16.954 C208.56075,17.056 207.89975,17.242 207.23975,17.512 L207.23975,17.512 C206.57975,17.784 205.95275,18.182 205.36075,18.707 L205.36075,18.707 C204.76875,19.231 204.28575,19.9 203.91375,20.712 L203.91375,20.712 L203.91375,17.005 L197.36275,17.005 L197.36275,41.99 L204.11675,41.99 L204.11675,30.564 C204.11675,29.21 204.29475,28.084 204.64975,27.187 L204.64975,27.187 C205.00575,26.29 205.47075,25.571 206.04575,25.028 L206.04575,25.028 C206.62175,24.487 207.29875,24.098 208.07775,23.861 L208.07775,23.861 C208.85675,23.624 209.68575,23.505 210.56675,23.505 L210.56675,23.505 C211.24275,23.505 211.91975,23.574 212.59775,23.709 L212.59775,23.709 L212.59775,16.903 C212.32675,16.87 212.06475,16.844 211.81075,16.827 L211.81075,16.827 C211.55775,16.81 211.29475,16.802 211.02375,16.802 L211.02375,16.802 C210.48175,16.802 209.88075,16.852 209.21975,16.954 L209.21975,16.954 Z M160.30375,17.005 L154.36275,33.763 L148.16675,17.005 L140.75275,17.005 L150.95975,41.99 L157.71375,41.99 L167.41375,17.005 L160.30375,17.005 Z M16.62775,44.94 C15.70175,44.167 14.84775,43.311 14.07775,42.383 L14.07775,42.383 L5.81775,47.166 C15.49775,60.181 33.86775,62.868 46.85375,53.168 L46.85375,53.168 L47.78075,52.458 L48.02475,52.614 L54.49575,56.356 C56.27075,54.681 57.87575,52.834 59.28775,50.842 L59.28775,50.842 L44.62275,42.383 C37.59675,50.84 25.06175,51.985 16.62775,44.94 L16.62775,44.94 Z" id="path-2"></path>
    </defs>
    <g id="Symbols" stroke="none" stroke-width="1" fill="none" fill-rule="evenodd">
        <g id="logo/qover-h/gradient">
            <mask id="mask-3" fill="white">
                <use xlink:href="#path-2"></use>
            </mask>
            <use id="logo-qover_h-gradient" fill="url(#linearGradient-1)" xlink:href="#path-2"></use>
        </g>
    </g>
</svg>